<svg data-v-0dd9719b="" version="1.0" xmlns="http://www.w3.org/2000/svg" xmlns:xlink="http://www.w3.org/1999/xlink" width="100%" height="100%" viewBox="0 0 340.000000 250.000000" preserveAspectRatio="xMidYMid meet" color-interpolation-filters="sRGB" style="margin: auto;"> <rect data-v-0dd9719b="" x="0" y="0" width="100%" height="100%" fill="#fff" fill-opacity="1" class="background"></rect> <rect data-v-0dd9719b="" x="0" y="0" width="100%" height="100%" fill="url(#watermark)" fill-opacity="1" class="watermarklayer"></rect> <g data-v-0dd9719b="" fill="#333" class="icon-text-wrapper icon-svg-group iconsvg" transform="translate(49.19499969482422,96.17629432678223)"><g class="iconsvg-imagesvg" transform="translate(0,0)"><g><rect fill="#333" fill-opacity="0" stroke-width="2" x="0" y="0" width="60" height="57.64740922935022" class="image-rect"></rect> <svg x="0" y="0" width="60" height="57.64740922935022" filtersec="colorsb1409727841" class="image-svg-svg primary" style="overflow: visible;"><svg xmlns="http://www.w3.org/2000/svg" viewBox="-0.00456786435097456 -0.0021572085097432137 57.79900360107422 55.53249740600586"><path d="M29.76 44.76v-4.9a.85.85 0 0 1 .49-.88q4.32-2.41 8.6-4.9a.55.55 0 0 1 .66 0q4.3 2.49 8.63 4.94a.74.74 0 0 1 .45.75v10a.7.7 0 0 1-.4.72q-4.29 2.43-8.58 4.91a.71.71 0 0 1-.82 0q-4.29-2.49-8.63-4.93a.7.7 0 0 1-.4-.72c.01-1.69 0-3.34 0-4.99z" fill="#f18d00"></path><path d="M57.79 16.41v4.94a.63.63 0 0 1-.35.64q-4.35 2.46-8.67 5A.69.69 0 0 1 48 27c-2.88-1.66-5.77-3.31-8.65-5a.75.75 0 0 1-.33-.57v-10a.8.8 0 0 1 .32-.58q4.35-2.61 8.74-5.18a.72.72 0 0 1 .61 0q4.41 2.58 8.78 5.2a.87.87 0 0 1 .32.64c.01 1.63 0 3.26 0 4.9z" fill="#00a0da"></path><path d="M0 39v-4.89a.66.66 0 0 1 .39-.67c2.9-1.65 5.79-3.31 8.69-4.94a.84.84 0 0 1 .71 0c2.89 1.62 5.76 3.28 8.64 4.92a.67.67 0 0 1 .38.67v9.84a.71.71 0 0 1-.41.72q-4.26 2.5-8.5 5a.81.81 0 0 1-1 0Q4.7 47.2.43 44.7a.76.76 0 0 1-.43-.77V39z" fill="#f18d00"></path><path d="M27.84 10.71v4.83a.72.72 0 0 1-.39.73q-4.29 2.51-8.56 5.06a.74.74 0 0 1-.9 0q-4.26-2.57-8.55-5.07a.73.73 0 0 1-.44-.71V5.77a.69.69 0 0 1 .42-.71Q13.78 2.6 18.08.11a.65.65 0 0 1 .73 0Q23.12 2.6 27.44 5a.71.71 0 0 1 .41.72c-.02 1.69-.01 3.34-.01 4.99z" fill="#00a0da"></path><path d="M19.41 27.76v-5a.69.69 0 0 1 .4-.67c2.89-1.69 5.76-3.4 8.64-5.12a.6.6 0 0 1 .72 0c2.89 1.72 5.8 3.43 8.68 5.16a.86.86 0 0 1 .35.62v9.89a.64.64 0 0 1-.37.64q-4.34 2.46-8.67 5a.69.69 0 0 1-.78 0q-4.3-2.49-8.62-4.94a.65.65 0 0 1-.37-.68c.03-1.66.02-3.27.02-4.9z" fill="#fff100"></path></svg></svg> <!----></g></g> <g transform="translate(67,14.858705520629883)"><g data-gra="path-name" fill-rule="" class="tp-name iconsvg-namesvg"><g transform="scale(1)"><g><path d="M3.1-25.6L4.68-25.6 4.68 1.58 3.1 1.58 3.1-25.6ZM30.35-12.01L30.35-12.01Q30.35-7.92 28.94-4.84 27.54-1.76 24.86-0.09 22.18 1.58 18.49 1.58L18.49 1.58 10.63 1.58 10.63-25.6 18.49-25.6Q22.18-25.6 24.86-23.93 27.54-22.25 28.94-19.17 30.35-16.09 30.35-12.01ZM28.77-12.01L28.77-12.01Q28.77-15.63 27.59-18.36 26.41-21.09 24.08-22.59 21.76-24.08 18.42-24.08L18.42-24.08 12.18-24.08 12.18 0.07 18.42 0.07Q21.73 0.07 24.07-1.44 26.41-2.96 27.59-5.67 28.77-8.38 28.77-12.01ZM49.68-24.08L36.76-24.08 36.76-13.49 48.87-13.49 48.87-11.97 36.76-11.97 36.76 0.07 49.68 0.07 49.68 1.58 35.21 1.58 35.21-25.6 49.68-25.6 49.68-24.08ZM72.57 1.58L69.26-7.46 57.61-7.46 54.3 1.58 52.71 1.58 62.82-25.6 64.15-25.6 74.3 1.58 72.57 1.58ZM58.17-9.01L68.7-9.01 63.45-23.42 58.17-9.01ZM77.57-19.12L77.57-19.12Q77.57-22.29 79.67-24.14 81.76-25.99 85.39-25.99L85.39-25.99Q88.13-25.99 90.18-24.68 92.22-23.38 92.99-21.13L92.99-21.13 91.55-20.49Q90.28-24.47 85.39-24.47L85.39-24.47Q82.32-24.47 80.76-23.12 79.19-21.76 79.19-19.15L79.19-19.15Q79.19-17.61 79.79-16.58 80.39-15.56 81.76-14.86 83.13-14.15 85.6-13.52L85.6-13.52Q88.56-12.75 90.3-11.73 92.04-10.7 92.83-9.26 93.63-7.82 93.63-5.7L93.63-5.7Q93.63-3.42 92.59-1.69 91.55 0.04 89.63 0.99 87.71 1.94 85.21 1.94L85.21 1.94Q82.11 1.94 79.88 0.48 77.64-0.99 76.65-3.7L76.65-3.7 78.06-4.37Q78.87-2.01 80.69-0.77 82.5 0.46 85.21 0.46L85.21 0.46Q88.38 0.46 90.23-1.2 92.08-2.85 92.08-5.7L92.08-5.7Q92.08-7.43 91.43-8.57 90.77-9.72 89.3-10.53 87.82-11.34 85.21-11.97L85.21-11.97Q81.13-12.99 79.35-14.67 77.57-16.34 77.57-19.12ZM113.17-25.6L113.17-24.08 105.77-24.08 105.77 1.58 104.19 1.58 104.19-24.08 96.73-24.08 96.73-25.6 113.17-25.6ZM126.23 1.94L126.23 1.94Q123.06 1.94 120.62 0.14 118.17-1.65 116.8-4.84 115.42-8.03 115.42-12.01L115.42-12.01Q115.42-15.99 116.8-19.17 118.17-22.36 120.63-24.17 123.1-25.99 126.23-25.99L126.23-25.99Q129.37-25.99 131.83-24.17 134.3-22.36 135.67-19.17 137.04-15.99 137.04-12.01L137.04-12.01Q137.04-8.03 135.67-4.84 134.3-1.65 131.85 0.14 129.4 1.94 126.23 1.94ZM126.23 0.46L126.23 0.46Q128.94 0.46 131.06-1.11 133.17-2.68 134.33-5.51 135.49-8.35 135.49-12.01L135.49-12.01Q135.49-15.67 134.33-18.5 133.17-21.34 131.06-22.9 128.94-24.47 126.23-24.47L126.23-24.47Q123.52-24.47 121.43-22.9 119.33-21.34 118.17-18.5 117.01-15.67 117.01-12.01L117.01-12.01Q117.01-8.35 118.17-5.51 119.33-2.68 121.43-1.11 123.52 0.46 126.23 0.46ZM158.06 1.58L149.01-10.63 143.35-10.63 143.35 1.58 141.8 1.58 141.8-25.6 151.06-25.6Q154.37-25.6 156.27-23.56 158.17-21.51 158.17-18.1L158.17-18.1Q158.17-14.72 156.27-12.68 154.37-10.63 151.06-10.63L151.06-10.63 150.92-10.63 160.07 1.58 158.06 1.58ZM143.35-24.08L143.35-12.15 151.06-12.15Q153.77-12.15 155.18-13.73 156.58-15.32 156.58-18.1L156.58-18.1Q156.58-20.88 155.16-22.48 153.73-24.08 151.06-24.08L151.06-24.08 143.35-24.08ZM177.71-24.08L164.79-24.08 164.79-13.49 176.9-13.49 176.9-11.97 164.79-11.97 164.79 0.07 177.71 0.07 177.71 1.58 163.24 1.58 163.24-25.6 177.71-25.6 177.71-24.08Z" transform="translate(-3.0999999046325684, 25.989999771118164)"></path></g> <!----> <!----> <!----> <!----> <!----> <!----> <!----></g></g> <!----></g></g><defs v-gra="od"></defs></svg>